<svg id="my-svg" width="100%" xmlns="http://www.w3.org/2000/svg" xmlns:xlink="http://www.w3.org/1999/xlink" style="max-width: 807.952px; background-color: white;" viewBox="-360.6556701660156 -246.6998291015625 807.9519653320312 628.399658203125" role="graphics-document document" aria-roledescription="architecture"><style>#my-svg{font-family:"trebuchet ms",verdana,arial,sans-serif;font-size:16px;fill:#333;}@keyframes edge-animation-frame{from{stroke-dashoffset:0;}}@keyframes dash{to{stroke-dashoffset:0;}}#my-svg .edge-animation-slow{stroke-dasharray:9,5!important;stroke-dashoffset:900;animation:dash 50s linear infinite;stroke-linecap:round;}#my-svg .edge-animation-fast{stroke-dasharray:9,5!important;stroke-dashoffset:900;animation:dash 20s linear infinite;stroke-linecap:round;}#my-svg .error-icon{fill:#552222;}#my-svg .error-text{fill:#552222;stroke:#552222;}#my-svg .edge-thickness-normal{stroke-width:1px;}#my-svg .edge-thickness-thick{stroke-width:3.5px;}#my-svg .edge-pattern-solid{stroke-dasharray:0;}#my-svg .edge-thickness-invisible{stroke-width:0;fill:none;}#my-svg .edge-pattern-dashed{stroke-dasharray:3;}#my-svg .edge-pattern-dotted{stroke-dasharray:2;}#my-svg .marker{fill:#333333;stroke:#333333;}#my-svg .marker.cross{stroke:#333333;}#my-svg svg{font-family:"trebuchet ms",verdana,arial,sans-serif;font-size:16px;}#my-svg p{margin:0;}#my-svg .edge{stroke-width:3;stroke:#333333;fill:none;}#my-svg .arrow{fill:#333333;}#my-svg .node-bkg{fill:none;stroke:hsl(240, 60%, 86.2745098039%);stroke-width:2px;stroke-dasharray:8;}#my-svg .node-icon-text{display:flex;align-items:center;}#my-svg .node-icon-text&gt;div{color:#fff;margin:1px;height:fit-content;text-align:center;overflow:hidden;display:-webkit-box;-webkit-box-orient:vertical;}#my-svg .node .neo-node{stroke:#9370DB;}#my-svg [data-look="neo"].node rect,#my-svg [data-look="neo"].cluster rect,#my-svg [data-look="neo"].node polygon{stroke:#9370DB;filter:drop-shadow(1px 2px 2px rgba(185, 185, 185, 1));}#my-svg [data-look="neo"].node path{stroke:#9370DB;stroke-width:1px;}#my-svg [data-look="neo"].node .outer-path{filter:drop-shadow(1px 2px 2px rgba(185, 185, 185, 1));}#my-svg [data-look="neo"].node .neo-line path{stroke:#9370DB;filter:none;}#my-svg [data-look="neo"].node circle{stroke:#9370DB;filter:drop-shadow(1px 2px 2px rgba(185, 185, 185, 1));}#my-svg [data-look="neo"].node circle .state-start{fill:#000000;}#my-svg [data-look="neo"].icon-shape .icon{fill:#9370DB;filter:drop-shadow(1px 2px 2px rgba(185, 185, 185, 1));}#my-svg [data-look="neo"].icon-shape .icon-neo path{stroke:#9370DB;filter:drop-shadow(1px 2px 2px rgba(185, 185, 185, 1));}#my-svg :root{--mermaid-font-family:"trebuchet ms",verdana,arial,sans-serif;}</style><g/><g class="architecture-edges"><g><path d="M -43.92489756516798,39.28853157927443 L 18.9909993956079,39.28853157927443 L81.90689635638378,39.28853157927443" class="edge" id="my-svg-L_phone_worker_0"/><polygon points="13.333333333333334,6.666666666666667 0,13.333333333333334 0,0" transform="translate(70.57356302305045,32.62186491260776)" class="arrow"/></g><g><path d="M 161.90689635638375,39.28853157927443 L 223.35159895455865,39.28853157927443 L284.79630155273355,39.28853157927443" class="edge" id="my-svg-L_worker_d1_0"/><polygon points="13.333333333333334,6.666666666666667 0,13.333333333333334 0,0" transform="translate(273.46296821940024,32.62186491260776)" class="arrow"/></g><g><path d="M 121.90689635638377,79.28853157927443 L 121.90689635638377,140.74417957745806 L121.90689635638377,202.19982757564168" class="edge" id="my-svg-L_worker_r2_0"/><polygon points="0,0 13.333333333333334,0 6.666666666666667,13.333333333333334" transform="translate(115.2402296897171,190.86649424230833)" class="arrow"/></g><g><path d="M -83.92489756516798,-0.7114684207255664 L -83.92489756516798,-63.70564799818361 L-83.92489756516798,-126.69982757564165" class="edge" id="my-svg-L_phone_ory_0"/><polygon points="6.666666666666667,0 13.333333333333334,13.333333333333334 0,13.333333333333334" transform="translate(-90.59156423183465,-128.69982757564165)" class="arrow"/></g><g><path d="M -43.92489756516798,-166.69982757564165 L 18.9909993956079,-166.69982757564165 L81.90689635638378,-166.69982757564165" class="edge" id="my-svg-L_ory_google_0"/><polygon points="13.333333333333334,6.666666666666667 0,13.333333333333334 0,0" transform="translate(70.57356302305045,-173.3664942423083)" class="arrow"/></g><g><path d="M -123.92489756516798,-166.69982757564165 L -184.36059955895075,-166.69982757564165 L-244.79630155273355,-166.69982757564165" class="edge" id="my-svg-L_ory_apple_0"/><polygon points="0,6.666666666666667 13.333333333333334,0 13.333333333333334,13.333333333333334" transform="translate(-246.79630155273355,-173.3664942423083)" class="arrow"/></g><g><path d="M 121.90689635638378,-0.7114684207255664 L 18.99099939560789,-63.70564799818361 L-83.924897565168,-126.69982757564165" class="edge" id="my-svg-L_worker_ory_0"/><polygon points="6.666666666666667,0 13.333333333333334,13.333333333333334 0,13.333333333333334" transform="translate(-90.59156423183467,-128.69982757564165)" class="arrow"/></g></g><g class="architecture-services"><g id="my-svg-service-worker" class="architecture-service" transform="translate(81.90689635638377,-0.7114684207255735)"><g dy="1em" alignment-baseline="middle" dominant-baseline="middle" text-anchor="middle" transform="translate(40, 80)"><g><rect class="background" style="stroke: none"/><text y="-10.1" style=""><tspan class="text-outer-tspan row" x="0" y="-0.1em" dy="1.1em"><tspan font-style="normal" class="text-inner-tspan" font-weight="normal">Worker</tspan><tspan font-style="normal" class="text-inner-tspan" font-weight="normal"> Hono</tspan></tspan><tspan class="text-outer-tspan row" x="0" y="1em" dy="1.1em"><tspan font-style="normal" class="text-inner-tspan" font-weight="normal">and</tspan><tspan font-style="normal" class="text-inner-tspan" font-weight="normal"> TS</tspan></tspan></text></g></g><g><g><svg xmlns="http://www.w3.org/2000/svg" width="80" height="80" viewBox="0 0 512 136"><defs><linearGradient id="IconifyId19e3be832eaa5e5d10" x1="50%" x2="25.7%" y1="100%" y2="8.7%"><stop offset="0%" stop-color="#eb6f07"/><stop offset="100%" stop-color="#fab743"/></linearGradient><linearGradient id="IconifyId19e3be832eaa5e5d11" x1="81%" x2="40.5%" y1="83.7%" y2="29.5%"><stop offset="0%" stop-color="#d96504"/><stop offset="100%" stop-color="#d96504" stop-opacity="0"/></linearGradient><linearGradient id="IconifyId19e3be832eaa5e5d12" x1="42%" x2="84%" y1="8.7%" y2="79.9%"><stop offset="0%" stop-color="#eb6f07"/><stop offset="100%" stop-color="#eb720a" stop-opacity="0"/></linearGradient><linearGradient id="IconifyId19e3be832eaa5e5d13" x1="50%" x2="25.7%" y1="100%" y2="8.7%"><stop offset="0%" stop-color="#ee6f05"/><stop offset="100%" stop-color="#fab743"/></linearGradient><linearGradient id="IconifyId19e3be832eaa5e5d14" x1="-33.2%" x2="91.7%" y1="100%" y2="0%"><stop offset="0%" stop-color="#d96504" stop-opacity=".8"/><stop offset="49.8%" stop-color="#d96504" stop-opacity=".2"/><stop offset="100%" stop-color="#d96504" stop-opacity="0"/></linearGradient><linearGradient id="IconifyId19e3be832eaa5e5d15" x1="50%" x2="25.7%" y1="100%" y2="8.7%"><stop offset="0%" stop-color="#ffa95f"/><stop offset="100%" stop-color="#ffebc8"/></linearGradient><linearGradient id="IconifyId19e3be832eaa5e5d16" x1="8.1%" x2="96.5%" y1="1.1%" y2="48.8%"><stop offset="0%" stop-color="#fff" stop-opacity=".5"/><stop offset="100%" stop-color="#fff" stop-opacity=".1"/></linearGradient><linearGradient id="IconifyId19e3be832eaa5e5d17" x1="-13.7%" x2="100%" y1="104.2%" y2="46.2%"><stop offset="0%" stop-color="#fff" stop-opacity=".5"/><stop offset="100%" stop-color="#fff" stop-opacity=".1"/></linearGradient></defs><path fill="#232324" d="m199.787 115.617l-18.998-56.02h13.11l11.523 37.672l12.46-37.817h10.475l12.534 37.817l11.558-37.673h12.75l-18.963 56.021h-10.655l-12.57-36.408l-12.533 36.408zm88.925.542c-13.22 0-22.971-9.752-22.971-21.997v-.144c0-12.28 9.86-22.177 23.116-22.177c13.183 0 22.971 9.752 22.971 22.032v.145c0 12.208-9.86 22.14-23.116 22.14m.145-10.403c6.898 0 11.052-5.309 11.052-11.594v-.144c0-6.285-4.55-11.775-11.197-11.775c-6.935 0-11.052 5.31-11.052 11.594v.18c0 6.25 4.515 11.74 11.197 11.74m31.712 9.464V72.6h12.064v8.596c2.456-5.852 6.43-9.68 13.58-9.391v12.641h-.577c-8.019 0-12.967 4.876-12.967 15.026v15.748zm33.23 0V57.213h12.063V88.13l14.123-15.53h14.448L378.25 89.394l16.76 25.825h-13.834l-11.125-17.41l-4.19 4.443v12.967h-12.1zm65.23.939c-12.822 0-22.249-8.958-22.249-21.997v-.144c0-12.172 8.669-22.177 21.058-22.177c14.195 0 20.732 11.052 20.732 23.116c0 .939-.072 2.059-.18 3.178h-29.618c1.192 5.49 4.984 8.344 10.402 8.344c4.045 0 7.007-1.264 10.33-4.37l6.899 6.14a21.31 21.31 0 0 1-17.373 7.946zm-10.438-25.573h18.204c-.722-5.417-3.9-9.03-8.957-9.03c-5.02 0-8.308 3.54-9.247 9.03m38.937 24.634V72.6h12.1v8.596c2.456-5.852 6.429-9.68 13.58-9.391v12.641h-.65c-8.018 0-12.93 4.876-12.93 15.026v15.748H447.49zm48.182.794c-5.96 0-12.641-1.986-18.276-6.429l5.165-7.946a24.1 24.1 0 0 0 13.4 5.057c3.504 0 5.093-1.265 5.093-3.143v-.18c0-2.6-4.118-3.504-8.813-4.913c-5.96-1.77-12.714-4.55-12.714-12.786v-.18c0-8.669 7.007-13.509 15.567-13.509c5.418 0 11.306 1.806 15.893 4.949l-4.587 8.307a25.25 25.25 0 0 0-11.558-3.973c-2.89 0-4.443 1.3-4.443 2.962v.144c0 2.384 4.081 3.504 8.669 5.093c5.96 1.986 12.894 4.84 12.894 12.641v.145c0 9.463-7.08 13.761-16.29 13.761"/><path fill="#656566" d="M207.697 23.91h5.635v15.207h9.86v4.876h-15.53V23.911zm21.274 10.114v-.072c0-5.78 4.696-10.475 10.944-10.475a10.475 10.475 0 0 1 10.836 10.403v.072c0 5.779-4.695 10.438-10.908 10.438a10.475 10.475 0 0 1-10.872-10.402zm16.11 0v-.072c0-2.89-2.095-5.418-5.202-5.418c-3.07 0-5.129 2.456-5.129 5.382v.036c0 2.89 2.095 5.418 5.165 5.418c3.107 0 5.165-2.456 5.165-5.382zm12.605 1.156V23.91h5.707v11.198c0 2.89 1.48 4.226 3.72 4.226s3.72-1.3 3.72-4.118V23.911h5.707v11.124c0 6.502-3.72 9.32-9.5 9.32c-5.778 0-9.39-2.89-9.39-9.175zm27.45-11.27h7.802c7.224 0 11.45 4.118 11.45 9.934v.072c0 5.779-4.262 10.113-11.558 10.113h-7.694V23.875zm7.947 15.17c3.323 0 5.562-1.841 5.562-5.128c0-3.25-2.24-5.093-5.598-5.093h-2.276v10.15h2.276v.036zm19.504-15.17h16.217v4.877h-10.619v3.431h9.608v4.623h-9.608v7.152h-5.598zm24.02 0h5.598v15.207h9.824v4.876h-15.423zm30.086-.144h5.418l8.669 20.227h-6.068l-1.445-3.576h-7.838l-1.445 3.612h-5.887zm4.949 12.317l-2.24-5.707l-2.275 5.707zm16.325-12.172h9.608c3.106 0 5.237.794 6.61 2.167c1.192 1.156 1.806 2.709 1.806 4.695v.073c0 3.106-1.662 5.129-4.154 6.14l4.84 7.08h-6.501l-4.118-6.069h-2.456v6.068h-5.635zm9.355 9.644c1.914 0 2.998-.94 2.998-2.384v-.073c0-1.553-1.156-2.347-3.034-2.347h-3.72v4.804zm16.76-9.644h16.253v4.695H419.68v3.07h9.716v4.407h-9.752v3.178h10.908v4.732h-16.435V23.911zM195.38 36.37a4.98 4.98 0 0 1-4.624 2.999c-3.07 0-5.165-2.529-5.165-5.418s2.06-5.418 5.13-5.418a5.06 5.06 0 0 1 4.803 3.36h5.996a10.55 10.55 0 0 0-10.691-8.344c-6.249 0-10.944 4.695-10.944 10.474v.036a10.475 10.475 0 0 0 10.871 10.403c5.346 0 9.536-3.432 10.62-8.019l-5.924-.036z"/><path fill="url(#IconifyId19e3be832eaa5e5d10)" d="m38.624 1.95l17.699 31.93l-16.254 29.256a9.39 9.39 0 0 0 0 9.138l16.254 29.329l-17.699 31.929a18.8 18.8 0 0 1-7.946-7.477L2.505 77.115a18.85 18.85 0 0 1 0-18.783L30.678 9.391a18.8 18.8 0 0 1 7.946-7.44"/><path fill="url(#IconifyId19e3be832eaa5e5d11)" d="M40.069 63.172a9.39 9.39 0 0 0 0 9.102l16.254 29.329l-17.699 31.929a18.8 18.8 0 0 1-7.946-7.477L2.505 77.115C.265 73.248 12.8 68.625 40.07 63.207z" opacity=".7"/><path fill="url(#IconifyId19e3be832eaa5e5d12)" d="M40.43 5.165L56.323 33.88l-2.637 4.587l-14.014-23.73c-4.046-6.61-10.222-3.179-17.952 10.185l1.156-1.986L30.678 9.39a18.8 18.8 0 0 1 7.874-7.44l1.842 3.214z" opacity=".5"/><path fill="url(#IconifyId19e3be832eaa5e5d13)" d="m119.53 9.39l28.174 48.942c3.359 5.78 3.359 13.003 0 18.782l-28.173 48.941a18.78 18.78 0 0 1-16.254 9.391H75.104l35.036-63.172a9.39 9.39 0 0 0 0-9.102L75.104 0h28.173a18.78 18.78 0 0 1 16.254 9.39"/><path fill="url(#IconifyId19e3be832eaa5e5d14)" d="m101.832 135.23l-27.811.252l33.663-63.497a9.75 9.75 0 0 0 0-9.174L74.02 0h6.357l35.324 62.522a9.75 9.75 0 0 1-.036 9.68a5643 5643 0 0 0-22.647 39.73c-6.862 12.065-3.9 19.83 8.813 23.298"/><path fill="url(#IconifyId19e3be832eaa5e5d15)" d="M46.932 135.446c-2.89 0-5.78-.686-8.308-1.914l34.747-62.666a6.48 6.48 0 0 0 0-6.285L38.624 1.95A18.8 18.8 0 0 1 46.932 0h28.172l35.036 63.172a9.39 9.39 0 0 1 0 9.102l-35.036 63.172z"/><path fill="url(#IconifyId19e3be832eaa5e5d16)" d="M107.684 64.58L71.854 0h3.25l35.036 63.172a9.39 9.39 0 0 1 0 9.102l-35.036 63.172h-3.25l35.83-64.58a6.48 6.48 0 0 0 0-6.285" opacity=".6"/><path fill="url(#IconifyId19e3be832eaa5e5d17)" d="M73.37 64.58L38.625 1.95c1.084-.577 2.384-1.01 3.612-1.372C49.893 14.339 61.2 35.216 76.188 63.172a9.39 9.39 0 0 1 0 9.102l-34.494 62.45c-1.228-.361-1.878-.614-3.034-1.156l34.675-62.666a6.48 6.48 0 0 0 0-6.285z" opacity=".6"/></svg></g></g></g><g id="my-svg-service-d1" class="architecture-service" transform="translate(284.79630155273355,-0.7114684207255735)"><g dy="1em" alignment-baseline="middle" dominant-baseline="middle" text-anchor="middle" transform="translate(40, 80)"><g><rect class="background" style="stroke: none"/><text y="-10.1" style=""><tspan class="text-outer-tspan row" x="0" y="-0.1em" dy="1.1em"><tspan font-style="normal" class="text-inner-tspan" font-weight="normal">D1</tspan><tspan font-style="normal" class="text-inner-tspan" font-weight="normal"> SQLite</tspan></tspan></text></g></g><g><g><svg xmlns="http://www.w3.org/2000/svg" width="80" height="80" viewBox="0 0 512 228"><defs><linearGradient id="IconifyId19e3be832eaa5e5d18" x1="57.662%" x2="57.662%" y1="2.046%" y2="94.439%"><stop offset="0%" stop-color="#97d9f6"/><stop offset="92.024%" stop-color="#0f80cc"/><stop offset="100%" stop-color="#0f80cc"/></linearGradient></defs><path fill="#003b57" d="M194.52 112.044c-6.821 0-12.368 2.02-16.62 6.055c-4.251 4.04-6.408 9.335-6.408 15.824c0 3.362.535 6.428 1.59 9.237c1.056 2.815 2.699 5.423 4.907 7.78s6.628 5.561 13.215 9.635c8.084 4.934 13.373 8.939 15.912 12.066c2.54 3.124 3.801 6.398 3.801 9.812c0 4.57-1.504 8.219-4.597 10.961c-3.097 2.744-7.24 4.11-12.375 4.11c-5.417 0-10.136-1.909-14.188-5.7c-4.052-3.798-6.098-8.821-6.144-15.117h-2.52v22.851h2.52c.77-2.164 1.834-3.27 3.227-3.27c.67 0 2.24.461 4.685 1.325c5.949 2.117 10.834 3.138 14.674 3.138c6.617 0 12.266-2.317 16.972-7.027c4.7-4.708 7.072-10.387 7.072-17.017c0-5.14-1.566-9.715-4.64-13.701c-3.075-3.992-9.054-8.635-17.99-13.967c-7.689-4.62-12.68-8.382-14.983-11.315c-2.307-2.929-3.492-6.169-3.492-9.724c0-3.845 1.413-6.934 4.199-9.238c2.786-2.305 6.437-3.447 11.006-3.447c5.14 0 9.426 1.526 12.817 4.597c3.388 3.076 5.347 7.339 5.923 12.817h2.52v-19.8h-2.343c-.287 1.009-.552 1.654-.796 1.944c-.237.288-.693.442-1.37.442c-.815 0-2.268-.343-4.332-1.017c-4.42-1.488-8.495-2.254-12.243-2.254m82.342 0c-8.311 0-15.857 1.96-22.674 5.879c-6.828 3.912-12.233 9.345-16.221 16.265S232 148.456 232 156.288c0 10.52 3.444 19.894 10.387 28.11c6.946 8.21 15.27 13.326 24.928 15.293c2.208 1.15 5.367 4.12 9.503 8.928c4.66 5.425 8.603 9.338 11.845 11.668a35.6 35.6 0 0 0 10.43 5.172c3.7 1.126 7.699 1.68 12.023 1.68c5.237 0 9.925-.911 14.055-2.785l-.928-2.299c-2.397.865-4.954 1.282-7.646 1.282c-3.655 0-7.348-1.205-11.05-3.624c-3.697-2.426-8.32-7.053-13.834-13.879c-2.592-3.27-4.381-5.334-5.393-6.143c10.568-2.064 19.257-7.185 26.034-15.382c6.774-8.192 10.165-17.542 10.165-28.022c0-12.442-4.427-22.9-13.215-31.425c-8.796-8.527-19.612-12.818-32.442-12.818m51.403 0l.133 2.696c5.533 0 8.633 1.63 9.326 4.906c.258 1.173.376 3.337.397 6.453l-.044 59.625q-.07 6.68-1.9 8.53c-1.222 1.225-3.287 1.993-6.276 2.298l-.133 2.697h55.16l1.415-13.525h-2.52c-.72 3.684-2.369 6.324-4.994 7.823c-2.633 1.51-7.288 2.254-14.011 2.254h-5.216c-6.05 0-9.55-2.187-10.475-6.586c-.19-.87-.256-1.803-.265-2.828l.22-60.288c0-4.446.561-7.425 1.725-8.884c1.175-1.453 3.295-2.266 6.364-2.475l-.132-2.696zm-50.52 3.27c9.375 0 17.028 3.693 22.94 11.139c5.91 7.449 8.84 17.658 8.84 30.586c0 12.25-2.972 22.058-8.928 29.436c-5.957 7.376-13.884 11.05-23.735 11.05c-9.464 0-17.139-3.789-23.028-11.403c-5.884-7.615-8.795-17.501-8.795-29.658c0-12.492 2.947-22.492 8.884-29.967c5.933-7.466 13.878-11.182 23.823-11.182m126.852 12.819c-1.346 0-2.371.454-3.138 1.37c-.785.912-1.026 2.017-.752 3.359c.265 1.302 1 2.442 2.166 3.403c1.16.96 2.411 1.459 3.757 1.459c1.301 0 2.293-.499 3.005-1.459c.713-.96.93-2.101.663-3.403c-.274-1.342-.983-2.447-2.077-3.36c-1.107-.915-2.323-1.37-3.624-1.37m36.375 9.149c-2.286 8.794-7.241 13.553-14.85 14.32l.088 2.52h8.884l-.177 29.79c.014 5.093.17 8.484.53 10.21c.876 4.131 3.574 6.232 8.089 6.232q9.8-.002 20.552-11.934l-2.165-1.856c-5.175 5.238-9.75 7.867-13.746 7.867c-2.456 0-3.978-1.412-4.553-4.199c-.157-.677-.22-1.468-.22-2.387l.088-33.723h13.569l-.133-4.023h-13.392v-12.817zm52.464 11.226c-7.59 0-13.763 3.685-18.563 11.006c-4.775 7.333-6.253 15.458-4.376 24.398c1.105 5.236 3.306 9.294 6.674 12.154c3.363 2.86 7.629 4.288 12.73 4.288c4.748 0 11.36-1.203 14.143-3.625c2.79-2.42 5.36-6.342 7.735-11.712l-1.9-1.99c-3.788 6.968-11.43 10.476-17.194 10.476c-7.924 0-12.777-4.348-14.586-12.995a32 32 0 0 1-.53-3.536c9.427-1.492 16.571-4.135 21.392-7.955c4.818-3.823 9.655-7.875 8.752-12.155c-.538-2.544-1.858-4.544-3.89-6.055c-2.058-1.511-7.4-2.299-10.387-2.299m-82.96.31l-16.354 3.757v2.917l5.657-.707c2.74 0 4.353 1.24 4.862 3.712c.171.827.28 1.99.31 3.448l-.178 26.74c-.045 3.7-.456 5.851-1.281 6.497q-1.25.972-6.586.973l-.088 2.519h25.944l-.044-2.52c-3.605 0-5.942-.284-6.983-.84c-1.024-.55-1.73-1.555-2.033-3.093c-.235-1.108-.338-3.018-.354-5.657l.089-37.746zm78.806 4.95c1.579 0 3.104.61 4.64 1.812c1.516 1.198 2.439 2.53 2.741 3.978c1.48 7.11-4.823 12.024-19.006 14.762c-.404-5.183.494-9.89 2.785-14.143c2.274-4.25 5.235-6.409 8.84-6.409"/><path fill="#0f80cc" d="M157.888 9.952H17.15C7.717 9.952 0 17.67 0 27.102V182.31c0 9.432 7.717 17.15 17.15 17.15h92.693c-1.052-46.122 14.698-135.63 48.045-189.508"/><path fill="url(#IconifyId19e3be832eaa5e5d18)" d="M152.775 14.955H17.15c-6.698 0-12.148 5.449-12.148 12.148v143.883c30.716-11.788 76.817-21.96 108.693-21.498c6.406-33.494 25.232-99.134 39.08-134.533"/><path fill="#003b57" d="M190.715 4.872c-9.639-8.595-21.31-5.143-32.827 5.08c-1.71 1.518-3.416 3.203-5.113 5.003c-19.704 20.903-37.994 59.62-43.676 89.19c2.214 4.489 3.943 10.217 5.081 14.593c.292 1.122.555 2.176.766 3.072c.5 2.122.769 3.497.769 3.497s-.177-.668-.902-2.77c-.138-.403-.292-.843-.474-1.361a16 16 0 0 0-.304-.752c-1.285-2.988-4.84-9.294-6.405-12.04a301 301 0 0 0-3.511 10.983c4.517 8.265 7.27 22.429 7.27 22.429s-.239-.918-1.374-4.122c-1.008-2.833-6.027-11.628-7.216-13.684c-2.034 7.509-2.842 12.578-2.113 13.812c1.415 2.391 2.762 6.518 3.946 11.081c2.673 10.28 4.53 22.796 4.53 22.796s.06.83.162 2.106c-.372 8.633-.149 17.584.52 25.674c.885 10.71 2.552 19.91 4.677 24.834l1.443-.786c-3.12-9.701-4.388-22.414-3.833-37.076c.84-22.41 5.997-49.437 15.526-77.606c16.1-42.523 38.436-76.641 58.879-92.935c-18.633 16.828-43.851 71.297-51.4 91.467c-8.453 22.588-14.443 43.784-18.053 64.092c6.229-19.039 26.368-27.222 26.368-27.222s9.877-12.182 21.42-29.586c-6.914 1.577-18.268 4.277-22.071 5.875c-5.61 2.353-7.121 3.156-7.121 3.156s18.17-11.066 33.76-16.076c21.44-33.768 44.799-81.74 21.276-102.724"/></svg></g></g></g><g id="my-svg-service-r2" class="architecture-service" transform="translate(81.90689635638377,202.19982757564168)"><g dy="1em" alignment-baseline="middle" dominant-baseline="middle" text-anchor="middle" transform="translate(40, 80)"><g><rect class="background" style="stroke: none"/><text y="-10.1" style=""><tspan class="text-outer-tspan row" x="0" y="-0.1em" dy="1.1em"><tspan font-style="normal" class="text-inner-tspan" font-weight="normal">R2</tspan><tspan font-style="normal" class="text-inner-tspan" font-weight="normal"> media</tspan></tspan></text></g></g><g><g><svg xmlns="http://www.w3.org/2000/svg" width="80" height="80" viewBox="0 0 80 80"><g><rect width="80" height="80" style="fill: #087ebf; stroke-width: 0px;"/><rect x="20" y="15" width="40" height="50" rx="1" ry="1" style="fill: none; stroke: #fff; stroke-miterlimit: 10; stroke-width: 2px;"/><ellipse cx="24" cy="19.17" rx=".8" ry=".83" style="fill: none; stroke: #fff; stroke-miterlimit: 10; stroke-width: 2px;"/><ellipse cx="56" cy="19.17" rx=".8" ry=".83" style="fill: none; stroke: #fff; stroke-miterlimit: 10; stroke-width: 2px;"/><ellipse cx="24" cy="60.83" rx=".8" ry=".83" style="fill: none; stroke: #fff; stroke-miterlimit: 10; stroke-width: 2px;"/><ellipse cx="56" cy="60.83" rx=".8" ry=".83" style="fill: none; stroke: #fff; stroke-miterlimit: 10; stroke-width: 2px;"/><ellipse cx="40" cy="33.75" rx="14" ry="14.58" style="fill: none; stroke: #fff; stroke-miterlimit: 10; stroke-width: 2px;"/><ellipse cx="40" cy="33.75" rx="4" ry="4.17" style="fill: #fff; stroke: #fff; stroke-miterlimit: 10; stroke-width: 2px;"/><path d="m37.51,42.52l-4.83,13.22c-.26.71-1.1,1.02-1.76.64l-4.18-2.42c-.66-.38-.81-1.26-.33-1.84l9.01-10.8c.88-1.05,2.56-.08,2.09,1.2Z" style="fill: #fff; stroke-width: 0px;"/></g></svg></g></g></g><g id="my-svg-service-phone" class="architecture-service" transform="translate(-123.92489756516798,-0.7114684207255735)"><g dy="1em" alignment-baseline="middle" dominant-baseline="middle" text-anchor="middle" transform="translate(40, 80)"><g><rect class="background" style="stroke: none"/><text y="-10.1" style=""><tspan class="text-outer-tspan row" x="0" y="-0.1em" dy="1.1em"><tspan font-style="normal" class="text-inner-tspan" font-weight="normal">Flutter</tspan><tspan font-style="normal" class="text-inner-tspan" font-weight="normal"> iOS</tspan><tspan font-style="normal" class="text-inner-tspan" font-weight="normal"> app</tspan></tspan></text></g></g><g><g><svg xmlns="http://www.w3.org/2000/svg" width="80" height="80" viewBox="0 0 256 317"><defs><linearGradient id="IconifyId19e3be832eaa5e5d19" x1="3.952%" x2="75.897%" y1="26.993%" y2="52.919%"><stop offset="0%"/><stop offset="100%" stop-opacity="0"/></linearGradient></defs><path fill="#47c5fb" d="M157.666.001L.001 157.666l48.8 48.8L255.268.001zm-1.099 145.396l-84.418 84.418l48.984 49.716l48.71-48.71l85.425-85.424z"/><path fill="#00569e" d="m121.133 279.531l37.082 37.082h97.052l-85.425-85.792z"/><path fill="#00b5f8" d="m71.6 230.364l48.801-48.801l49.441 49.258l-48.709 48.71z"/><path fill="url(#IconifyId19e3be832eaa5e5d19)" fill-opacity=".8" d="m121.133 279.531l40.56-13.459l4.029-31.131z"/></svg></g></g></g><g id="my-svg-service-ory" class="architecture-service" transform="translate(-123.92489756516798,-206.69982757564165)"><g dy="1em" alignment-baseline="middle" dominant-baseline="middle" text-anchor="middle" transform="translate(40, 80)"><g><rect class="background" style="stroke: none"/><text y="-10.1" style=""><tspan class="text-outer-tspan row" x="0" y="-0.1em" dy="1.1em"><tspan font-style="normal" class="text-inner-tspan" font-weight="normal">Ory</tspan><tspan font-style="normal" class="text-inner-tspan" font-weight="normal"> Network</tspan></tspan></text></g></g><g><g><svg xmlns="http://www.w3.org/2000/svg" width="80" height="80" viewBox="0 0 24 24"><path fill="currentColor" d="M12 6a6 6 0 1 0 0 12a6 6 0 0 0 0-12m-6-.75V3l6-3l6 3v2.25l-6-3zm12 13.5V21l-6 3l-6-3v-2.25l6 3z"/></svg></g></g></g><g id="my-svg-service-google" class="architecture-service" transform="translate(81.90689635638377,-206.69982757564165)"><g dy="1em" alignment-baseline="middle" dominant-baseline="middle" text-anchor="middle" transform="translate(40, 80)"><g><rect class="background" style="stroke: none"/><text y="-10.1" style=""><tspan class="text-outer-tspan row" x="0" y="-0.1em" dy="1.1em"><tspan font-style="normal" class="text-inner-tspan" font-weight="normal">Google</tspan><tspan font-style="normal" class="text-inner-tspan" font-weight="normal"> OAuth</tspan></tspan></text></g></g><g><g><svg xmlns="http://www.w3.org/2000/svg" width="80" height="80" viewBox="0 0 256 262"><path fill="#4285f4" d="M255.878 133.451c0-10.734-.871-18.567-2.756-26.69H130.55v48.448h71.947c-1.45 12.04-9.283 30.172-26.69 42.356l-.244 1.622l38.755 30.023l2.685.268c24.659-22.774 38.875-56.282 38.875-96.027"/><path fill="#34a853" d="M130.55 261.1c35.248 0 64.839-11.605 86.453-31.622l-41.196-31.913c-11.024 7.688-25.82 13.055-45.257 13.055c-34.523 0-63.824-22.773-74.269-54.25l-1.531.13l-40.298 31.187l-.527 1.465C35.393 231.798 79.49 261.1 130.55 261.1"/><path fill="#fbbc05" d="M56.281 156.37c-2.756-8.123-4.351-16.827-4.351-25.82c0-8.994 1.595-17.697 4.206-25.82l-.073-1.73L15.26 71.312l-1.335.635C5.077 89.644 0 109.517 0 130.55s5.077 40.905 13.925 58.602z"/><path fill="#eb4335" d="M130.55 50.479c24.514 0 41.05 10.589 50.479 19.438l36.844-35.974C195.245 12.91 165.798 0 130.55 0C79.49 0 35.393 29.301 13.925 71.947l42.211 32.783c10.59-31.477 39.891-54.251 74.414-54.251"/></svg></g></g></g><g id="my-svg-service-apple" class="architecture-service" transform="translate(-324.79630155273355,-206.69982757564165)"><g dy="1em" alignment-baseline="middle" dominant-baseline="middle" text-anchor="middle" transform="translate(40, 80)"><g><rect class="background" style="stroke: none"/><text y="-10.1" style=""><tspan class="text-outer-tspan row" x="0" y="-0.1em" dy="1.1em"><tspan font-style="normal" class="text-inner-tspan" font-weight="normal">Apple</tspan><tspan font-style="normal" class="text-inner-tspan" font-weight="normal"> SSO</tspan></tspan></text></g></g><g><g><svg xmlns="http://www.w3.org/2000/svg" width="80" height="80" viewBox="0 0 256 315"><path d="M213.803 167.03c.442 47.58 41.74 63.413 42.197 63.615c-.35 1.116-6.599 22.563-21.757 44.716c-13.104 19.153-26.705 38.235-48.13 38.63c-21.05.388-27.82-12.483-51.888-12.483c-24.061 0-31.582 12.088-51.51 12.871c-20.68.783-36.428-20.71-49.64-39.793c-27-39.033-47.633-110.3-19.928-158.406c13.763-23.89 38.36-39.017 65.056-39.405c20.307-.387 39.475 13.662 51.889 13.662c12.406 0 35.699-16.895 60.186-14.414c10.25.427 39.026 4.14 57.503 31.186c-1.49.923-34.335 20.044-33.978 59.822M174.24 50.199c10.98-13.29 18.369-31.79 16.353-50.199c-15.826.636-34.962 10.546-46.314 23.828c-10.173 11.763-19.082 30.589-16.678 48.633c17.64 1.365 35.66-8.964 46.64-22.262"/></svg></g></g></g></g><g class="architecture-groups"><rect id="my-svg-group-cf" x="3.406896356383754" y="-43.211468420725566" width="403.8894051963498" height="384.91129599636724" class="node-bkg"/><g><g transform="translate(4.406896356383754, -42.211468420725566)"><g><svg xmlns="http://www.w3.org/2000/svg" width="30" height="30" viewBox="0 0 512 76"><path d="M214.633 47.4h7.505v20.704h13.096v6.643h-20.6zm28.361 13.751v-.08c0-7.856 6.257-14.218 14.61-14.218c8.35 0 14.529 6.295 14.529 14.138v.08c0 7.853-6.257 14.218-14.61 14.218s-14.531-6.287-14.531-14.138zm21.49 0v-.08c0-3.948-2.82-7.384-6.96-7.384c-4.142 0-6.84 3.356-6.84 7.304v.08c0 3.945 2.816 7.384 6.92 7.384c4.1 0 6.88-3.358 6.88-7.304m16.827 1.602V47.41h7.613v15.197c0 3.945 1.965 5.815 4.982 5.815c3.014 0 4.982-1.8 4.982-5.627V47.4h7.61v15.157c0 8.832-4.983 12.69-12.673 12.69s-12.524-3.948-12.524-12.5m36.674-15.34h10.438c9.658 0 15.262 5.625 15.262 13.508v.08c0 7.882-5.685 13.747-15.42 13.747h-10.28V47.4v.01zm10.546 20.621c4.487 0 7.454-2.497 7.454-6.912v-.08c0-4.377-2.974-6.915-7.454-6.915h-3.055v13.907zM354.575 47.4h21.637v6.646h-14.145v4.643h12.79v6.287h-12.79v9.771h-7.492zm32.068 0h7.502v20.704h13.098v6.643h-20.6zm40.19-.193h7.223l11.517 27.535h-8.036l-1.978-4.884H425.12l-1.928 4.884h-7.888l11.517-27.535zm6.572 16.755l-3.016-7.773l-3.055 7.773zm21.828-16.554h12.79c4.134 0 7 1.099 8.807 2.966c1.594 1.559 2.394 3.677 2.394 6.365v.08c0 4.177-2.206 6.953-5.566 8.393l6.455 9.53h-8.659l-5.446-8.282h-3.283v8.282h-7.502V47.4l.01.01zm12.446 13.126c2.55 0 4.021-1.247 4.021-3.238v-.077c0-2.149-1.54-3.238-4.06-3.238h-4.905v6.566h4.952l-.008-.01zM490.044 47.4h21.758v6.445h-14.334v4.136h12.988v5.984h-12.988v4.337H512v6.445h-21.956zM198.212 64.356c-1.05 2.4-3.263 4.099-6.2 4.099c-4.09 0-6.916-3.439-6.916-7.384v-.083c0-3.948 2.745-7.303 6.839-7.303c3.084 0 5.436 1.917 6.435 4.535h7.898c-1.267-6.503-6.92-11.37-14.263-11.37c-8.343 0-14.61 6.365-14.61 14.219v.08c0 7.853 6.177 14.138 14.532 14.138c7.136 0 12.72-4.679 14.193-10.943h-7.918l.01.01z"/><path fill="#fbad41" d="M132.234 32.698c-.552 0-1.097.02-1.641.037a.8.8 0 0 0-.256.06a.92.92 0 0 0-.593.64l-2.334 8.155c-1.006 3.506-.632 6.744 1.06 9.12c1.55 2.2 4.13 3.49 7.263 3.64l12.662.768c.376.02.702.2.9.5c.211.322.258.725.129 1.089a1.61 1.61 0 0 1-1.373 1.069l-13.157.768c-7.147.331-14.838 6.164-17.536 13.277l-.948 2.51a.703.703 0 0 0 .622.958h45.312a1.205 1.205 0 0 0 1.165-.878a33 33 0 0 0 1.204-8.885c0-18.12-14.529-32.808-32.459-32.808"/><path fill="#f6821f" d="m112.457 74.235l.838-2.949c1.009-3.506.635-6.744-1.054-9.12c-1.556-2.2-4.134-3.49-7.268-3.64l-59.395-.768a1.17 1.17 0 0 1-.939-.5a1.24 1.24 0 0 1-.13-1.089a1.61 1.61 0 0 1 1.385-1.069l59.95-.768c7.117-.329 14.807-6.164 17.505-13.277l3.419-9.035a2.3 2.3 0 0 0 .1-1.197C122.973 13.199 107.392 0 88.764 0c-17.172 0-31.741 11.199-36.97 26.767A17.37 17.37 0 0 0 39.47 23.32c-8.232.828-14.858 7.534-15.676 15.857a18 18 0 0 0 .452 6.204C10.792 45.78 0 56.92 0 70.608c0 1.238.088 2.457.266 3.647c.073.577.565 1.01 1.147 1.009h109.688a1.43 1.43 0 0 0 1.356-1.05"/></svg></g></g><g dy="1em" alignment-baseline="middle" dominant-baseline="start" text-anchor="start" transform="translate(37.406896356383754, -36.211468420725566)"><g><rect class="background" style="stroke: none"/><text y="-10.1" style=""><tspan class="text-outer-tspan row" x="0" y="-0.1em" dy="1.1em"><tspan font-style="normal" class="text-inner-tspan" font-weight="normal">Cloudflare</tspan></tspan></text></g></g></g></g></svg>